<?xml version="1.0" encoding="UTF-8" standalone="no"?>
<svg
   xmlns:dc="http://purl.org/dc/elements/1.1/"
   xmlns:cc="http://creativecommons.org/ns#"
   xmlns:rdf="http://www.w3.org/1999/02/22-rdf-syntax-ns#"
   xmlns:svg="http://www.w3.org/2000/svg"
   xmlns="http://www.w3.org/2000/svg"
   xmlns:sodipodi="http://sodipodi.sourceforge.net/DTD/sodipodi-0.dtd"
   xmlns:inkscape="http://www.inkscape.org/namespaces/inkscape"
   width="160mm"
   height="60mm"
   viewBox="0 0 160 60"
   version="1.1"
   id="svg8"
   inkscape:version="1.0 (4035a4fb49, 2020-05-01)"
   sodipodi:docname="logo.svg">
  <defs
     id="defs2" />
  <sodipodi:namedview
     inkscape:guide-bbox="true"
     showguides="true"
     id="base"
     pagecolor="#ffffff"
     bordercolor="#666666"
     borderopacity="1.0"
     inkscape:pageopacity="0.0"
     inkscape:pageshadow="2"
     inkscape:zoom="0.91923882"
     inkscape:cx="360.79236"
     inkscape:cy="238.95954"
     inkscape:document-units="mm"
     inkscape:current-layer="layer1"
     inkscape:document-rotation="0"
     showgrid="false"
     inkscape:window-width="1366"
     inkscape:window-height="702"
     inkscape:window-x="-8"
     inkscape:window-y="-8"
     inkscape:window-maximized="1" />
  <metadata
     id="metadata5">
    <rdf:RDF>
      <cc:Work
         rdf:about="">
        <dc:format>image/svg+xml</dc:format>
        <dc:type
           rdf:resource="http://purl.org/dc/dcmitype/StillImage" />
        <dc:title></dc:title>
      </cc:Work>
    </rdf:RDF>
  </metadata>
  <g
     inkscape:label="Layer 1"
     inkscape:groupmode="layer"
     id="layer1">
    <path
       sodipodi:nodetypes="cccccsssccccccccccssc"
       d="m 5.046165,30.328626 c -0.05862,-1.775568 0.2456437,-3.324232 0.8542094,-4.587803 2.4590258,-1.035124 3.2270762,-0.33781 4.1532336,0.264067 L 47.15876,27.456994 C 59.237014,27.374394 67.971223,22.493121 77.114382,18.198175 83.375356,15.248883 90.264667,9.3234566 97.435505,5.9219964 111.8199,-0.90116053 123.11436,1.1724961 133.26069,4.1861893 c 14.993,4.4532806 20.79872,17.9409947 20.89227,25.9305697 8.3e-4,0.0714 -0.002,0.140727 -0.001,0.211867 M 5.046165,30.285966 c -0.05862,1.775571 0.2456437,3.324232 0.8542094,4.587806 m 8.4411316,-0.431875 12.649888,-0.495049 m 2.622628,-0.102636 17.544738,-0.686611 c 12.078254,0.0826 20.812463,4.96387 29.955622,9.258816 6.024784,2.838037 12.631398,8.431901 19.510819,11.880756 m 2.600765,1.206169 c 13.537594,5.837136 24.313164,3.812593 34.034724,0.925067 14.99301,-4.453266 20.79872,-17.940998 20.89227,-25.930573 8.3e-4,-0.0714 -0.002,-0.14073 -0.001,-0.21187"
       style="opacity:1;fill:none;fill-opacity:1;stroke:#ef233c;stroke-width:0.55;stroke-linecap:butt;stroke-linejoin:miter;stroke-miterlimit:4;stroke-dasharray:none;stroke-opacity:1"
       id="path948" />
    <path
       sodipodi:nodetypes="ccccsc"
       d="m 53.793454,30.285966 c 0.231617,0.879097 1.761328,1.314234 4.048306,1.840701 l 1.750791,-0.0351 c 3.971226,0.544477 10.60364,4.391446 17.193171,7.193318 0.845967,0.20157 2.451438,0.564187 2.240678,-0.400487 -1.103544,-5.05096 -1.941298,-6.758891 -2.168848,-8.598392"
       style="fill:none;fill-opacity:1;stroke:#ef233c;stroke-width:0.35;stroke-linecap:butt;stroke-linejoin:miter;stroke-miterlimit:4;stroke-dasharray:none;stroke-opacity:1"
       id="path871" />
    <path
       id="path950"
       style="fill:none;fill-opacity:1;stroke:#ef233c;stroke-width:0.35;stroke-linecap:butt;stroke-linejoin:miter;stroke-miterlimit:4;stroke-dasharray:none;stroke-opacity:1"
       d="m 53.793454,30.328626 c 0.231617,-0.879094 1.761328,-1.314231 4.048306,-1.840698 l 1.750791,0.0351 c 3.971226,-0.544477 10.60364,-4.391446 17.193171,-7.193321 0.845967,-0.201567 2.451438,-0.564187 2.240678,0.400487 -1.103544,5.050963 -1.941298,6.758894 -2.168848,8.598392"
       sodipodi:nodetypes="ccccsc" />
    <g
       transform="translate(-74.612541,-40.216686)"
       style="font-style:normal;font-variant:normal;font-weight:bold;font-stretch:normal;font-size:22.5778px;line-height:10;font-family:'Dancing Script';-inkscape-font-specification:'Dancing Script Bold';letter-spacing:5.29167px;stroke-width:0.264583"
       id="text851"
       aria-label="PK_Tenis">
      <g
         style="font-weight:bold;font-size:23.3983px;line-height:1.25;font-family:'Josefin Sans';-inkscape-font-specification:'Josefin Sans Bold';fill:#2a9d8f;fill-opacity:1;stroke-width:0.15477"
         id="text887"
         aria-label="PK_Tenis">
        <path
           id="path955"
           style="fill:#d90429;fill-opacity:1;stroke-width:0.15477"
           d="m 83.875092,68.422391 q 2.129246,0 3.603339,0.725347 1.474093,0.701949 2.246236,2.012254 0.772144,1.286906 0.772144,3.065177 0,1.052923 -0.327576,2.129245 -0.304178,1.052924 -1.006127,1.918661 -0.67855,0.865737 -1.848465,1.403898 -1.146517,0.514762 -2.831195,0.514762 h -2.433423 v 5.451804 H 78.657271 V 68.422391 Z m 0.584958,8.470184 q 0.772144,0 1.286906,-0.257381 0.514763,-0.28078 0.795543,-0.678551 0.304178,-0.421169 0.421169,-0.865737 0.14039,-0.444568 0.14039,-0.772144 0,-0.257381 -0.09359,-0.678551 -0.07019,-0.444567 -0.327577,-0.889135 -0.257381,-0.444568 -0.795542,-0.748746 -0.514762,-0.304177 -1.403898,-0.304177 h -2.433423 v 5.194422 z" />
        <path
           id="path957"
           style="fill:#d90429;fill-opacity:1;stroke-width:0.15477"
           d="m 102.28663,74.552745 -0.0936,0.865737 0.51477,-0.655152 5.61559,-6.340939 h 4.39888 l -7.11308,7.721439 7.13648,9.499709 h -4.30529 l -5.31141,-7.347066 -0.84234,0.842339 v 6.504727 H 98.847077 V 68.422391 h 3.439553 z" />
        <path
           id="path959"
           style="fill:#d90429;fill-opacity:1;stroke-width:0.15477"
           d="m 120.75446,82.812345 h 9.54651 v 2.831194 h -9.54651 z" />
        <path
           id="path961"
           style="font-style:normal;font-variant:normal;font-weight:normal;font-stretch:normal;font-family:'Josefin Sans';-inkscape-font-specification:'Josefin Sans';fill:#d90429;fill-opacity:1;stroke-width:0.15477"
           d="m 139.15686,68.726568 h 11.23118 v 2.176042 h -4.53927 v 14.740929 h -2.26963 V 70.90261 h -4.42228 z" />
        <path
           id="path963"
           style="font-style:normal;font-variant:normal;font-weight:normal;font-stretch:normal;font-family:'Josefin Sans';-inkscape-font-specification:'Josefin Sans';fill:#d90429;fill-opacity:1;stroke-width:0.15477"
           d="m 160.7023,85.877522 q -1.66128,0 -2.85459,-0.655152 -1.19331,-0.678551 -1.84846,-1.825067 -0.63176,-1.169915 -0.63176,-2.667407 0,-1.427296 0.72535,-2.597211 0.72535,-1.169915 1.94206,-1.871864 1.21671,-0.701949 2.7142,-0.701949 1.91866,0 3.18217,1.123118 1.26351,1.123119 1.70807,3.088576 l -7.97882,2.807796 -0.51476,-1.286906 6.55153,-2.386627 -0.46797,0.304178 q -0.28078,-0.772144 -0.93593,-1.333703 -0.65515,-0.584958 -1.70808,-0.584958 -0.88913,0 -1.59108,0.444568 -0.70195,0.421169 -1.09972,1.169915 -0.39777,0.748746 -0.39777,1.708076 0,1.006127 0.42117,1.778271 0.42117,0.748745 1.14651,1.193313 0.74875,0.421169 1.68468,0.421169 0.63175,0 1.21671,-0.233983 0.60836,-0.233983 1.12312,-0.608355 l 1.00613,1.614482 q -0.72535,0.491365 -1.63788,0.795543 -0.88914,0.304177 -1.75488,0.304177 z" />
        <path
           id="path965"
           style="font-style:normal;font-variant:normal;font-weight:normal;font-stretch:normal;font-family:'Josefin Sans';-inkscape-font-specification:'Josefin Sans';fill:#d90429;fill-opacity:1;stroke-width:0.15477"
           d="m 175.59971,75.956643 0.18719,2.363228 -0.0936,-0.374372 q 0.46797,-1.076322 1.52089,-1.708076 1.05293,-0.655153 2.43343,-0.655153 1.3805,0 2.24623,0.818941 0.88914,0.795542 0.91254,2.082449 v 7.159879 h -2.19944 v -6.387736 q -0.0234,-0.795542 -0.46797,-1.286906 -0.42117,-0.514763 -1.3337,-0.514763 -0.84234,0 -1.52089,0.467966 -0.67855,0.467966 -1.07632,1.286907 -0.37438,0.81894 -0.37438,1.895262 v 4.53927 h -2.17604 v -9.686896 z" />
        <path
           id="path967"
           style="font-style:normal;font-variant:normal;font-weight:normal;font-stretch:normal;font-family:'Josefin Sans';-inkscape-font-specification:'Josefin Sans';fill:#d90429;fill-opacity:1;stroke-width:0.15477"
           d="m 191.88236,75.956643 h 2.17604 v 9.686896 h -2.17604 z m -0.16379,-3.509745 q 0,-0.514762 0.39777,-0.865737 0.42117,-0.350974 0.91254,-0.350974 0.49136,0 0.86573,0.350974 0.39778,0.350975 0.39778,0.865737 0,0.538161 -0.39778,0.889136 -0.37437,0.327576 -0.86573,0.327576 -0.49137,0 -0.91254,-0.350975 -0.39777,-0.350974 -0.39777,-0.865737 z" />
        <path
           id="path969"
           style="font-style:normal;font-variant:normal;font-weight:normal;font-stretch:normal;font-family:'Josefin Sans';-inkscape-font-specification:'Josefin Sans';fill:#d90429;fill-opacity:1;stroke-width:0.15477"
           d="m 205.82921,85.830726 q -1.02952,0 -2.01225,-0.350975 -0.95933,-0.374372 -1.59108,-1.09972 l 0.91253,-1.263508 q 0.60836,0.584958 1.24011,0.889135 0.65515,0.28078 1.28691,0.28078 0.46796,0 0.86573,-0.116991 0.39777,-0.116992 0.63176,-0.374373 0.25738,-0.28078 0.25738,-0.748746 0,-0.514762 -0.35098,-0.81894 -0.32757,-0.304178 -0.86573,-0.491365 -0.51477,-0.187186 -1.09972,-0.350974 -1.19332,-0.397771 -1.82507,-1.09972 -0.63175,-0.701949 -0.63175,-1.708076 0,-0.772144 0.37437,-1.427297 0.39777,-0.67855 1.14652,-1.09972 0.77214,-0.421169 1.89526,-0.421169 1.00612,0 1.80167,0.257381 0.79554,0.233983 1.49749,0.795542 l -0.86574,1.357102 q -0.42117,-0.444568 -1.00613,-0.655153 -0.58495,-0.210584 -1.05292,-0.233983 -0.39777,-0.0234 -0.77214,0.116992 -0.35098,0.14039 -0.58496,0.397771 -0.23398,0.257381 -0.23398,0.608356 0,0.491364 0.32757,0.795542 0.32758,0.304178 0.84234,0.491364 0.53816,0.163788 1.05292,0.350975 0.72535,0.210585 1.28691,0.561559 0.56156,0.350975 0.88914,0.865737 0.35097,0.514763 0.35097,1.286907 0,0.865737 -0.42117,1.614482 -0.39777,0.725348 -1.24011,1.169915 -0.81894,0.42117 -2.10585,0.42117 z" />
      </g>
    </g>
    <path
       d="m 122.8114,27.288829 a 5.1489561,5.1489561 0 0 1 -2.5974,6.802724 5.1489561,5.1489561 0 0 1 -6.80272,-2.597404 5.1489561,5.1489561 0 0 1 2.5974,-6.802717 5.1489561,5.1489561 0 0 1 6.80272,2.597397"
       style="fill:#ffffff;fill-opacity:1;fill-rule:evenodd;stroke:#2b2d42;stroke-width:0.669;stroke-miterlimit:4;stroke-dasharray:none;stroke-opacity:1"
       id="path918" />
    <path
       sodipodi:nodetypes="cc"
       id="path920"
       d="m 116.94699,34.288812 c 0.0558,-2.904562 -0.60196,-5.523591 -3.28087,-7.333716"
       style="fill:none;stroke:#2b2d42;stroke-width:0.669;stroke-linecap:butt;stroke-linejoin:miter;stroke-miterlimit:4;stroke-dasharray:none;stroke-opacity:1" />
    <path
       style="fill:none;stroke:#2b2d42;stroke-width:0.669;stroke-linecap:butt;stroke-linejoin:miter;stroke-miterlimit:4;stroke-dasharray:none;stroke-opacity:1"
       d="m 122.72501,31.752535 c -2.20259,-1.894253 -3.71681,-4.130108 -3.28088,-7.333718"
       id="path922"
       sodipodi:nodetypes="cc" />
    <g
       style="font-weight:bold;font-size:10.2521px;line-height:1.25;font-family:'Josefin Sans';-inkscape-font-specification:'Josefin Sans Bold';letter-spacing:0px;stroke-width:0.287616"
       id="text855"
       transform="matrix(1.0841501,0,0,0.92238151,-74.612541,-16.404171)"
       aria-label="aulas | aluguel de quadras">
      <path
         id="path972"
         style="font-style:normal;font-variant:normal;font-weight:normal;font-stretch:normal;font-size:10.2521px;font-family:'Josefin Sans';-inkscape-font-specification:'Josefin Sans';fill:#2b2d42;fill-opacity:1;stroke-width:0.287616"
         d="m 74.16504,78.457448 q -0.594622,0 -1.086723,-0.256302 -0.481848,-0.256303 -0.768907,-0.748404 -0.276807,-0.502353 -0.276807,-1.22 0,-0.707395 0.297311,-1.22 0.297311,-0.522857 0.789412,-0.799663 0.502353,-0.276807 1.096974,-0.276807 0.594622,0 1.004706,0.276807 0.410084,0.266554 0.625378,0.63563 l -0.06151,0.164033 0.09227,-0.902184 h 0.88168 v 4.244369 H 75.805376 V 77.2477 l 0.102521,0.246051 q -0.04101,0.102521 -0.184538,0.266554 -0.133277,0.153782 -0.369076,0.317815 -0.225546,0.164034 -0.522857,0.276807 -0.297311,0.102521 -0.666386,0.102521 z m 0.256302,-0.789412 q 0.358824,0 0.645883,-0.133277 0.287058,-0.133277 0.471596,-0.369076 0.19479,-0.24605 0.266555,-0.584369 v -0.83042 q -0.08202,-0.307563 -0.287059,-0.53311 -0.205042,-0.235798 -0.492101,-0.358823 -0.287059,-0.133277 -0.63563,-0.133277 -0.379328,0 -0.697143,0.184537 -0.317815,0.184538 -0.512605,0.512605 -0.184538,0.328068 -0.184538,0.768908 0,0.410084 0.19479,0.748403 0.19479,0.33832 0.522857,0.533109 0.328068,0.19479 0.707395,0.19479 z" />
      <path
         id="path974"
         style="font-style:normal;font-variant:normal;font-weight:normal;font-stretch:normal;font-size:10.2521px;font-family:'Josefin Sans';-inkscape-font-specification:'Josefin Sans';fill:#2b2d42;fill-opacity:1;stroke-width:0.287616"
         d="m 79.751793,78.518961 q -0.574117,0 -0.953445,-0.348572 -0.369076,-0.358823 -0.38958,-0.922689 v -3.137142 h 0.953446 v 2.798823 q 0.0205,0.348571 0.194789,0.563865 0.184538,0.215295 0.574118,0.225547 0.358824,0 0.63563,-0.205042 0.287059,-0.215294 0.461345,-0.574118 0.174285,-0.369076 0.174285,-0.83042 v -1.978655 h 0.953446 v 4.244369 h -0.871429 l -0.08202,-1.045714 0.05126,0.184538 q -0.123025,0.297311 -0.379328,0.533109 -0.24605,0.225546 -0.584369,0.358823 -0.33832,0.133278 -0.738152,0.133278 z" />
      <path
         id="path976"
         style="font-style:normal;font-variant:normal;font-weight:normal;font-stretch:normal;font-size:10.2521px;font-family:'Josefin Sans';-inkscape-font-specification:'Josefin Sans';fill:#2b2d42;fill-opacity:1;stroke-width:0.287616"
         d="m 84.015385,70.419802 h 0.953446 v 7.935125 h -0.953446 z" />
      <path
         id="path978"
         style="font-style:normal;font-variant:normal;font-weight:normal;font-stretch:normal;font-size:10.2521px;font-family:'Josefin Sans';-inkscape-font-specification:'Josefin Sans';fill:#2b2d42;fill-opacity:1;stroke-width:0.287616"
         d="m 88.381819,78.457448 q -0.594622,0 -1.086723,-0.256302 -0.481849,-0.256303 -0.768908,-0.748404 -0.276806,-0.502353 -0.276806,-1.22 0,-0.707395 0.297311,-1.22 0.297311,-0.522857 0.789411,-0.799663 0.502353,-0.276807 1.096975,-0.276807 0.594622,0 1.004706,0.276807 0.410084,0.266554 0.625378,0.63563 l -0.06151,0.164033 0.09227,-0.902184 H 90.9756 v 4.244369 H 90.022155 V 77.2477 l 0.102521,0.246051 q -0.04101,0.102521 -0.184538,0.266554 -0.133278,0.153782 -0.369076,0.317815 -0.225546,0.164034 -0.522857,0.276807 -0.297311,0.102521 -0.666386,0.102521 z m 0.256302,-0.789412 q 0.358824,0 0.645882,-0.133277 0.287059,-0.133277 0.471597,-0.369076 0.19479,-0.24605 0.266555,-0.584369 v -0.83042 q -0.08202,-0.307563 -0.287059,-0.53311 -0.205042,-0.235798 -0.492101,-0.358823 -0.287059,-0.133277 -0.63563,-0.133277 -0.379328,0 -0.697143,0.184537 -0.317815,0.184538 -0.512605,0.512605 -0.184538,0.328068 -0.184538,0.768908 0,0.410084 0.19479,0.748403 0.19479,0.33832 0.522857,0.533109 0.328067,0.19479 0.707395,0.19479 z" />
      <path
         id="path980"
         style="font-style:normal;font-variant:normal;font-weight:normal;font-stretch:normal;font-size:10.2521px;font-family:'Josefin Sans';-inkscape-font-specification:'Josefin Sans';fill:#2b2d42;fill-opacity:1;stroke-width:0.287616"
         d="m 93.814792,78.436944 q -0.451093,0 -0.881681,-0.153782 -0.420336,-0.164033 -0.697143,-0.481848 L 92.6358,77.2477 q 0.266555,0.256303 0.543361,0.38958 0.287059,0.123025 0.563866,0.123025 0.205042,0 0.379328,-0.05126 0.174285,-0.05126 0.276806,-0.164034 0.112773,-0.123025 0.112773,-0.328067 0,-0.225546 -0.153781,-0.358824 -0.14353,-0.133277 -0.379328,-0.215294 -0.225546,-0.08202 -0.481849,-0.153781 -0.522857,-0.174286 -0.799663,-0.481849 -0.276807,-0.307563 -0.276807,-0.748403 0,-0.338319 0.164034,-0.625378 0.174285,-0.297311 0.502352,-0.481849 0.33832,-0.184538 0.830421,-0.184538 0.44084,0 0.789411,0.112773 0.348572,0.102521 0.656135,0.348572 l -0.379328,0.594622 q -0.184538,-0.19479 -0.44084,-0.287059 -0.256303,-0.09227 -0.461345,-0.102521 -0.174286,-0.01025 -0.338319,0.05126 -0.153782,0.06151 -0.256303,0.174286 -0.102521,0.112773 -0.102521,0.266555 0,0.215294 0.14353,0.348571 0.143529,0.133277 0.369075,0.215294 0.235799,0.07176 0.461345,0.153782 0.317815,0.09227 0.563865,0.24605 0.246051,0.153781 0.38958,0.379328 0.153782,0.225546 0.153782,0.563865 0,0.379328 -0.184538,0.707395 -0.174286,0.317815 -0.543361,0.512605 -0.358824,0.184538 -0.922689,0.184538 z" />
      <path
         id="path982"
         style="font-style:normal;font-variant:normal;font-weight:normal;font-stretch:normal;font-size:10.2521px;font-family:'Josefin Sans';-inkscape-font-specification:'Josefin Sans';fill:#2b2d42;fill-opacity:1;stroke-width:0.287616"
         d="m 100.14706,71.086188 h 0.87143 v 9.677983 h -0.87143 z" />
      <path
         id="path984"
         style="font-style:normal;font-variant:normal;font-weight:normal;font-stretch:normal;font-size:10.2521px;font-family:'Josefin Sans';-inkscape-font-specification:'Josefin Sans';fill:#2b2d42;fill-opacity:1;stroke-width:0.287616"
         d="m 107.84479,78.457448 q -0.59462,0 -1.08672,-0.256302 -0.48185,-0.256303 -0.76891,-0.748404 -0.27681,-0.502353 -0.27681,-1.22 0,-0.707395 0.29731,-1.22 0.29731,-0.522857 0.78941,-0.799663 0.50236,-0.276807 1.09698,-0.276807 0.59462,0 1.0047,0.276807 0.41009,0.266554 0.62538,0.63563 l -0.0615,0.164033 0.0923,-0.902184 h 0.88168 v 4.244369 h -0.95345 V 77.2477 l 0.10253,0.246051 q -0.041,0.102521 -0.18454,0.266554 -0.13328,0.153782 -0.36908,0.317815 -0.22554,0.164034 -0.52286,0.276807 -0.29731,0.102521 -0.66638,0.102521 z m 0.2563,-0.789412 q 0.35882,0 0.64588,-0.133277 0.28706,-0.133277 0.4716,-0.369076 0.19479,-0.24605 0.26655,-0.584369 v -0.83042 q -0.082,-0.307563 -0.28705,-0.53311 -0.20505,-0.235798 -0.49211,-0.358823 -0.28705,-0.133277 -0.63563,-0.133277 -0.37932,0 -0.69714,0.184537 -0.31781,0.184538 -0.5126,0.512605 -0.18454,0.328068 -0.18454,0.768908 0,0.410084 0.19479,0.748403 0.19479,0.33832 0.52286,0.533109 0.32806,0.19479 0.70739,0.19479 z" />
      <path
         id="path986"
         style="font-style:normal;font-variant:normal;font-weight:normal;font-stretch:normal;font-size:10.2521px;font-family:'Josefin Sans';-inkscape-font-specification:'Josefin Sans';fill:#2b2d42;fill-opacity:1;stroke-width:0.287616"
         d="m 112.08852,70.419802 h 0.95344 v 7.935125 h -0.95344 z" />
      <path
         id="path988"
         style="font-style:normal;font-variant:normal;font-weight:normal;font-stretch:normal;font-size:10.2521px;font-family:'Josefin Sans';-inkscape-font-specification:'Josefin Sans';fill:#2b2d42;fill-opacity:1;stroke-width:0.287616"
         d="m 116.03461,78.518961 q -0.57411,0 -0.95344,-0.348572 -0.36908,-0.358823 -0.38958,-0.922689 v -3.137142 h 0.95344 v 2.798823 q 0.0205,0.348571 0.19479,0.563865 0.18454,0.215295 0.57412,0.225547 0.35882,0 0.63563,-0.205042 0.28706,-0.215294 0.46135,-0.574118 0.17428,-0.369076 0.17428,-0.83042 v -1.978655 h 0.95345 v 4.244369 h -0.87143 l -0.082,-1.045714 0.0513,0.184538 q -0.12302,0.297311 -0.37933,0.533109 -0.24605,0.225546 -0.58437,0.358823 -0.33831,0.133278 -0.73815,0.133278 z" />
      <path
         id="path990"
         style="font-style:normal;font-variant:normal;font-weight:normal;font-stretch:normal;font-size:10.2521px;font-family:'Josefin Sans';-inkscape-font-specification:'Josefin Sans';fill:#2b2d42;fill-opacity:1;stroke-width:0.287616"
         d="m 122.33838,80.456608 q -0.4716,0 -0.83042,-0.112774 -0.35883,-0.102521 -0.65614,-0.29731 -0.28706,-0.19479 -0.55361,-0.440841 l 0.55361,-0.645882 q 0.33832,0.317815 0.68689,0.492101 0.34857,0.174285 0.77916,0.174285 0.48185,0 0.80992,-0.164033 0.33832,-0.153782 0.5126,-0.44084 0.17429,-0.276807 0.17429,-0.645883 l 0.0102,-1.148235 0.082,0.184538 q -0.18454,0.44084 -0.66639,0.748403 -0.48185,0.297311 -1.16874,0.297311 -0.58437,0 -1.07647,-0.297311 -0.48185,-0.297311 -0.77916,-0.799664 -0.28706,-0.512605 -0.28706,-1.148235 0,-0.666386 0.30757,-1.168739 0.30756,-0.512605 0.80991,-0.809916 0.50235,-0.297311 1.09698,-0.297311 0.56386,0 1.02521,0.235798 0.47159,0.225546 0.68689,0.58437 l -0.0513,0.174286 0.10252,-0.820168 h 0.87143 v 4.275125 q 0,0.574118 -0.29731,1.045715 -0.29732,0.471596 -0.84068,0.748403 -0.54336,0.276807 -1.30201,0.276807 z m -1.4558,-4.264874 q 0,0.410084 0.19479,0.748403 0.19479,0.33832 0.52286,0.533109 0.33831,0.19479 0.7484,0.19479 0.37933,0 0.67664,-0.133277 0.30756,-0.143529 0.5126,-0.379328 0.20504,-0.24605 0.28706,-0.563865 v -0.840672 q -0.0923,-0.307563 -0.30756,-0.53311 -0.2153,-0.235798 -0.51261,-0.358823 -0.29731,-0.133277 -0.65613,-0.133277 -0.41009,0 -0.7484,0.184537 -0.32807,0.184538 -0.52286,0.522858 -0.19479,0.328067 -0.19479,0.758655 z" />
      <path
         id="path992"
         style="font-style:normal;font-variant:normal;font-weight:normal;font-stretch:normal;font-size:10.2521px;font-family:'Josefin Sans';-inkscape-font-specification:'Josefin Sans';fill:#2b2d42;fill-opacity:1;stroke-width:0.287616"
         d="m 127.76846,78.518961 q -0.57412,0 -0.95344,-0.348572 -0.36908,-0.358823 -0.38958,-0.922689 v -3.137142 h 0.95344 v 2.798823 q 0.0205,0.348571 0.19479,0.563865 0.18454,0.215295 0.57412,0.225547 0.35882,0 0.63563,-0.205042 0.28706,-0.215294 0.46134,-0.574118 0.17429,-0.369076 0.17429,-0.83042 v -1.978655 h 0.95345 v 4.244369 h -0.87143 l -0.082,-1.045714 0.0513,0.184538 q -0.12302,0.297311 -0.37933,0.533109 -0.24605,0.225546 -0.58437,0.358823 -0.33832,0.133278 -0.73815,0.133278 z" />
      <path
         id="path994"
         style="font-style:normal;font-variant:normal;font-weight:normal;font-stretch:normal;font-size:10.2521px;font-family:'Josefin Sans';-inkscape-font-specification:'Josefin Sans';fill:#2b2d42;fill-opacity:1;stroke-width:0.287616"
         d="m 134.00046,78.457448 q -0.7279,0 -1.25076,-0.287059 -0.52285,-0.297311 -0.80991,-0.799664 -0.27681,-0.512605 -0.27681,-1.168739 0,-0.625378 0.31782,-1.137983 0.31781,-0.512605 0.85092,-0.820168 0.53311,-0.307563 1.18924,-0.307563 0.84068,0 1.39429,0.492101 0.55361,0.492101 0.7484,1.353277 l -3.49596,1.230252 -0.22555,-0.563866 2.87059,-1.045714 -0.20504,0.133278 q -0.12303,-0.33832 -0.41009,-0.58437 -0.28706,-0.256303 -0.7484,-0.256303 -0.38958,0 -0.69714,0.19479 -0.30757,0.184538 -0.48185,0.512605 -0.17429,0.328067 -0.17429,0.748404 0,0.44084 0.18454,0.779159 0.18454,0.328067 0.50235,0.522857 0.32807,0.184538 0.73815,0.184538 0.27681,0 0.53311,-0.102521 0.26656,-0.102521 0.4921,-0.266555 l 0.44085,0.707395 q -0.31782,0.215294 -0.71765,0.348572 -0.38958,0.133277 -0.76891,0.133277 z" />
      <path
         id="path996"
         style="font-style:normal;font-variant:normal;font-weight:normal;font-stretch:normal;font-size:10.2521px;font-family:'Josefin Sans';-inkscape-font-specification:'Josefin Sans';fill:#2b2d42;fill-opacity:1;stroke-width:0.287616"
         d="m 137.35834,70.419802 h 0.95345 v 7.935125 h -0.95345 z" />
      <path
         id="path998"
         style="font-style:normal;font-variant:normal;font-weight:normal;font-stretch:normal;font-size:10.2521px;font-family:'Josefin Sans';-inkscape-font-specification:'Josefin Sans';fill:#2b2d42;fill-opacity:1;stroke-width:0.287616"
         d="m 144.9276,78.457448 q -0.58437,0 -1.06622,-0.276807 -0.4716,-0.287058 -0.7484,-0.799663 -0.27681,-0.522858 -0.27681,-1.199496 0,-0.707395 0.28706,-1.209748 0.29731,-0.502353 0.79966,-0.768907 0.50235,-0.266555 1.12773,-0.266555 0.50236,0 0.95345,0.215294 0.46134,0.215294 0.71764,0.594622 l -0.041,0.338319 v -4.664705 h 0.94319 v 7.935125 h -0.95345 v -1.055966 l 0.10253,0.266554 q -0.29732,0.38958 -0.76891,0.645883 -0.4716,0.24605 -1.07647,0.24605 z m 0.29731,-0.809916 q 0.37933,0 0.67664,-0.133277 0.29731,-0.14353 0.4921,-0.38958 0.19479,-0.24605 0.2768,-0.58437 v -0.799663 q -0.082,-0.307563 -0.29731,-0.53311 -0.20504,-0.235798 -0.50235,-0.369075 -0.28706,-0.14353 -0.64588,-0.14353 -0.38958,0 -0.71765,0.19479 -0.31781,0.184538 -0.5126,0.512605 -0.19479,0.328067 -0.19479,0.758656 0,0.420336 0.19479,0.758655 0.19479,0.328067 0.52285,0.533109 0.32807,0.19479 0.7074,0.19479 z" />
      <path
         id="path1000"
         style="font-style:normal;font-variant:normal;font-weight:normal;font-stretch:normal;font-size:10.2521px;font-family:'Josefin Sans';-inkscape-font-specification:'Josefin Sans';fill:#2b2d42;fill-opacity:1;stroke-width:0.287616"
         d="m 151.26083,78.457448 q -0.7279,0 -1.25076,-0.287059 -0.52285,-0.297311 -0.80991,-0.799664 -0.27681,-0.512605 -0.27681,-1.168739 0,-0.625378 0.31782,-1.137983 0.31781,-0.512605 0.85092,-0.820168 0.53311,-0.307563 1.18924,-0.307563 0.84068,0 1.39429,0.492101 0.55361,0.492101 0.7484,1.353277 l -3.49596,1.230252 -0.22555,-0.563866 2.87059,-1.045714 -0.20504,0.133278 q -0.12303,-0.33832 -0.41009,-0.58437 -0.28706,-0.256303 -0.7484,-0.256303 -0.38958,0 -0.69714,0.19479 -0.30757,0.184538 -0.48185,0.512605 -0.17429,0.328067 -0.17429,0.748404 0,0.44084 0.18454,0.779159 0.18454,0.328067 0.50235,0.522857 0.32807,0.184538 0.73815,0.184538 0.27681,0 0.53311,-0.102521 0.26656,-0.102521 0.4921,-0.266555 l 0.44084,0.707395 q -0.31781,0.215294 -0.71764,0.348572 -0.38958,0.133277 -0.76891,0.133277 z" />
      <path
         id="path1002"
         style="font-style:normal;font-variant:normal;font-weight:normal;font-stretch:normal;font-size:10.2521px;font-family:'Josefin Sans';-inkscape-font-specification:'Josefin Sans';fill:#2b2d42;fill-opacity:1;stroke-width:0.287616"
         d="m 159.56439,78.457448 q -0.56387,0 -1.03546,-0.276807 -0.4716,-0.276806 -0.75866,-0.768907 -0.27681,-0.502353 -0.27681,-1.178992 0,-0.697142 0.29732,-1.209747 0.30756,-0.512605 0.80991,-0.799664 0.51261,-0.287059 1.11748,-0.287059 0.57412,0 1.01496,0.256302 0.44084,0.246051 0.70739,0.645883 l -0.11277,0.297311 v -1.086723 h 0.95344 v 6.34605 H 161.338 v -3.126891 l 0.041,0.399832 q -0.24605,0.348572 -0.7279,0.574118 -0.48185,0.215294 -1.08672,0.215294 z m 0.31781,-0.758655 q 0.36908,0 0.67664,-0.14353 0.30757,-0.143529 0.50236,-0.38958 0.20504,-0.256302 0.26655,-0.584369 v -0.717647 q -0.082,-0.328067 -0.27681,-0.574118 -0.19479,-0.256302 -0.4921,-0.399832 -0.29731,-0.143529 -0.67664,-0.143529 -0.37932,0 -0.70739,0.19479 -0.32807,0.19479 -0.52286,0.533109 -0.19479,0.338319 -0.19479,0.758655 0,0.420336 0.19479,0.748404 0.19479,0.328067 0.52286,0.522857 0.32807,0.19479 0.70739,0.19479 z" />
      <path
         id="path1004"
         style="font-style:normal;font-variant:normal;font-weight:normal;font-stretch:normal;font-size:10.2521px;font-family:'Josefin Sans';-inkscape-font-specification:'Josefin Sans';fill:#2b2d42;fill-opacity:1;stroke-width:0.287616"
         d="m 165.29275,78.518961 q -0.57411,0 -0.95344,-0.348572 -0.36908,-0.358823 -0.38958,-0.922689 v -3.137142 h 0.95344 v 2.798823 q 0.0205,0.348571 0.19479,0.563865 0.18454,0.215295 0.57412,0.225547 0.35882,0 0.63563,-0.205042 0.28706,-0.215294 0.46135,-0.574118 0.17428,-0.369076 0.17428,-0.83042 v -1.978655 h 0.95345 v 4.244369 h -0.87143 l -0.082,-1.045714 0.0513,0.184538 q -0.12302,0.297311 -0.37933,0.533109 -0.24605,0.225546 -0.58437,0.358823 -0.33831,0.133278 -0.73815,0.133278 z" />
      <path
         id="path1006"
         style="font-style:normal;font-variant:normal;font-weight:normal;font-stretch:normal;font-size:10.2521px;font-family:'Josefin Sans';-inkscape-font-specification:'Josefin Sans';fill:#2b2d42;fill-opacity:1;stroke-width:0.287616"
         d="m 171.3197,78.457448 q -0.59462,0 -1.08672,-0.256302 -0.48185,-0.256303 -0.76891,-0.748404 -0.2768,-0.502353 -0.2768,-1.22 0,-0.707395 0.29731,-1.22 0.29731,-0.522857 0.78941,-0.799663 0.50235,-0.276807 1.09697,-0.276807 0.59463,0 1.00471,0.276807 0.41008,0.266554 0.62538,0.63563 l -0.0615,0.164033 0.0923,-0.902184 h 0.88168 v 4.244369 h -0.95344 V 77.2477 l 0.10252,0.246051 q -0.041,0.102521 -0.18454,0.266554 -0.13328,0.153782 -0.36907,0.317815 -0.22555,0.164034 -0.52286,0.276807 -0.29731,0.102521 -0.66639,0.102521 z m 0.25631,-0.789412 q 0.35882,0 0.64588,-0.133277 0.28706,-0.133277 0.47159,-0.369076 0.19479,-0.24605 0.26656,-0.584369 v -0.83042 q -0.082,-0.307563 -0.28706,-0.53311 -0.20504,-0.235798 -0.4921,-0.358823 -0.28706,-0.133277 -0.63563,-0.133277 -0.37933,0 -0.69714,0.184537 -0.31782,0.184538 -0.51261,0.512605 -0.18454,0.328068 -0.18454,0.768908 0,0.410084 0.19479,0.748403 0.19479,0.33832 0.52286,0.533109 0.32807,0.19479 0.7074,0.19479 z" />
      <path
         id="path1008"
         style="font-style:normal;font-variant:normal;font-weight:normal;font-stretch:normal;font-size:10.2521px;font-family:'Josefin Sans';-inkscape-font-specification:'Josefin Sans';fill:#2b2d42;fill-opacity:1;stroke-width:0.287616"
         d="m 177.28578,78.457448 q -0.58437,0 -1.06622,-0.276807 -0.47159,-0.287058 -0.7484,-0.799663 -0.27681,-0.522858 -0.27681,-1.199496 0,-0.707395 0.28706,-1.209748 0.29731,-0.502353 0.79967,-0.768907 0.50235,-0.266555 1.12773,-0.266555 0.50235,0 0.95344,0.215294 0.46135,0.215294 0.71765,0.594622 l -0.041,0.338319 v -4.664705 h 0.94319 v 7.935125 h -0.95344 v -1.055966 l 0.10252,0.266554 q -0.29731,0.38958 -0.76891,0.645883 -0.47159,0.24605 -1.07647,0.24605 z m 0.29731,-0.809916 q 0.37933,0 0.67664,-0.133277 0.29731,-0.14353 0.4921,-0.38958 0.19479,-0.24605 0.27681,-0.58437 v -0.799663 q -0.082,-0.307563 -0.29731,-0.53311 -0.20504,-0.235798 -0.50235,-0.369075 -0.28706,-0.14353 -0.64589,-0.14353 -0.38958,0 -0.71764,0.19479 -0.31782,0.184538 -0.51261,0.512605 -0.19479,0.328067 -0.19479,0.758656 0,0.420336 0.19479,0.758655 0.19479,0.328067 0.52286,0.533109 0.32807,0.19479 0.70739,0.19479 z" />
      <path
         id="path1010"
         style="font-style:normal;font-variant:normal;font-weight:normal;font-stretch:normal;font-size:10.2521px;font-family:'Josefin Sans';-inkscape-font-specification:'Josefin Sans';fill:#2b2d42;fill-opacity:1;stroke-width:0.287616"
         d="m 182.50154,74.110558 0.0923,1.230252 -0.0513,-0.164034 q 0.16403,-0.38958 0.4716,-0.656134 0.31781,-0.276807 0.65613,-0.420336 0.34857,-0.153782 0.60488,-0.153782 l -0.0513,0.943193 q -0.48185,-0.03076 -0.85093,0.184538 -0.35882,0.215294 -0.57412,0.574118 -0.20504,0.358823 -0.20504,0.768907 v 1.937647 h -0.94319 v -4.244369 z" />
      <path
         id="path1012"
         style="font-style:normal;font-variant:normal;font-weight:normal;font-stretch:normal;font-size:10.2521px;font-family:'Josefin Sans';-inkscape-font-specification:'Josefin Sans';fill:#2b2d42;fill-opacity:1;stroke-width:0.287616"
         d="m 187.17842,78.457448 q -0.59462,0 -1.08672,-0.256302 -0.48185,-0.256303 -0.76891,-0.748404 -0.2768,-0.502353 -0.2768,-1.22 0,-0.707395 0.29731,-1.22 0.29731,-0.522857 0.78941,-0.799663 0.50235,-0.276807 1.09697,-0.276807 0.59462,0 1.00471,0.276807 0.41008,0.266554 0.62538,0.63563 l -0.0615,0.164033 0.0923,-0.902184 h 0.88168 v 4.244369 h -0.95344 V 77.2477 l 0.10252,0.246051 q -0.041,0.102521 -0.18454,0.266554 -0.13328,0.153782 -0.36907,0.317815 -0.22555,0.164034 -0.52286,0.276807 -0.29731,0.102521 -0.66639,0.102521 z m 0.2563,-0.789412 q 0.35883,0 0.64589,-0.133277 0.28706,-0.133277 0.47159,-0.369076 0.19479,-0.24605 0.26656,-0.584369 v -0.83042 q -0.082,-0.307563 -0.28706,-0.53311 -0.20504,-0.235798 -0.4921,-0.358823 -0.28706,-0.133277 -0.63563,-0.133277 -0.37933,0 -0.69714,0.184537 -0.31782,0.184538 -0.51261,0.512605 -0.18454,0.328068 -0.18454,0.768908 0,0.410084 0.19479,0.748403 0.19479,0.33832 0.52286,0.533109 0.32807,0.19479 0.70739,0.19479 z" />
      <path
         id="path1014"
         style="font-style:normal;font-variant:normal;font-weight:normal;font-stretch:normal;font-size:10.2521px;font-family:'Josefin Sans';-inkscape-font-specification:'Josefin Sans';fill:#2b2d42;fill-opacity:1;stroke-width:0.287616"
         d="m 192.61139,78.436944 q -0.45109,0 -0.88168,-0.153782 -0.42033,-0.164033 -0.69714,-0.481848 L 191.4324,77.2477 q 0.26656,0.256303 0.54336,0.38958 0.28706,0.123025 0.56387,0.123025 0.20504,0 0.37932,-0.05126 0.17429,-0.05126 0.27681,-0.164034 0.11277,-0.123025 0.11277,-0.328067 0,-0.225546 -0.15378,-0.358824 -0.14353,-0.133277 -0.37932,-0.215294 -0.22555,-0.08202 -0.48185,-0.153781 -0.52286,-0.174286 -0.79967,-0.481849 -0.2768,-0.307563 -0.2768,-0.748403 0,-0.338319 0.16403,-0.625378 0.17429,-0.297311 0.50235,-0.481849 0.33832,-0.184538 0.83042,-0.184538 0.44084,0 0.78941,0.112773 0.34858,0.102521 0.65614,0.348572 l -0.37933,0.594622 q -0.18454,-0.19479 -0.44084,-0.287059 -0.2563,-0.09227 -0.46134,-0.102521 -0.17429,-0.01025 -0.33832,0.05126 -0.15378,0.06151 -0.25631,0.174286 -0.10252,0.112773 -0.10252,0.266555 0,0.215294 0.14353,0.348571 0.14353,0.133277 0.36908,0.215294 0.2358,0.07176 0.46134,0.153782 0.31782,0.09227 0.56387,0.24605 0.24605,0.153781 0.38958,0.379328 0.15378,0.225546 0.15378,0.563865 0,0.379328 -0.18454,0.707395 -0.17428,0.317815 -0.54336,0.512605 -0.35882,0.184538 -0.92269,0.184538 z" />
    </g>
  </g>
</svg>
